# xmcd CD database file generated by Grip 2.96
# 
# Track frame offsets:
#       150
#       12134
#       28986
#       48635
#       81052
#       102909
#       122440
#       144334
#       163398
#       186547
#       207569
#       230229
# 
# Disc length: 3400 seconds
# 
# Revision: 0
# Processed by: cddbd v1.4PL0 Copyright (c) Steve Scherf et al.
# Submitted via: Grip 2.96
# 
DISCID=ae0d460c
DTITLE=Leo Kysela - Plays U2
DYEAR=2002
DGENRE=Soul
TTITLE0=Hommage
TTITLE1=Exit
TTITLE2=Desire
TTITLE3=One
TTITLE4=Sweetest Thing
TTITLE5=With Or Without You
TTITLE6=In A Little While
TTITLE7=The First Time
TTITLE8=Grace
TTITLE9=Where The Streets Have No Name
TTITLE10=Love Is Blindness
TTITLE11=I Still Haven't Found What I'm Looking For
EXTD=
EXTT0=
EXTT1=
EXTT2=
EXTT3=
EXTT4=
EXTT5=
EXTT6=
EXTT7=
EXTT8=
EXTT9=
EXTT10=
EXTT11=
PLAYORDER=
